<svg width="24" height="18" viewBox="0 0 24 18" fill="none" xmlns="http://www.w3.org/2000/svg">
<path d="M12 11.4C13.3255 11.4 14.4 10.3255 14.4 8.99998C14.4 7.67449 13.3255 6.59998 12 6.59998C10.6745 6.59998 9.60001 7.67449 9.60001 8.99998C9.60001 10.3255 10.6745 11.4 12 11.4Z" fill="#111827" fill-opacity="0.87"/>
<path fill-rule="evenodd" clip-rule="evenodd" d="M0.549316 9.00002C2.07842 4.13147 6.62678 0.599976 12 0.599976C17.3731 0.599976 21.9215 4.13143 23.4506 8.99993C21.9215 13.8685 17.3731 17.4 11.9999 17.4C6.62679 17.4 2.07845 13.8685 0.549316 9.00002ZM16.8 8.99998C16.8 11.6509 14.651 13.8 12 13.8C9.34904 13.8 7.20001 11.6509 7.20001 8.99998C7.20001 6.34901 9.34904 4.19998 12 4.19998C14.651 4.19998 16.8 6.34901 16.8 8.99998Z" fill="#111827" fill-opacity="0.87"/>
</svg>
