<svg width="20" height="20" viewBox="0 0 20 20" fill="none" xmlns="http://www.w3.org/2000/svg">
<path fill-rule="evenodd" clip-rule="evenodd" d="M10 19.6C15.3019 19.6 19.6 15.302 19.6 10C19.6 4.69809 15.3019 0.400024 10 0.400024C4.69806 0.400024 0.399998 4.69809 0.399998 10C0.399998 15.302 4.69806 19.6 10 19.6ZM8.44853 6.7515C7.9799 6.28287 7.2201 6.28287 6.75147 6.7515C6.28284 7.22013 6.28284 7.97992 6.75147 8.44855L8.30294 10L6.75147 11.5515C6.28284 12.0201 6.28284 12.7799 6.75147 13.2486C7.2201 13.7172 7.9799 13.7172 8.44853 13.2486L10 11.6971L11.5515 13.2486C12.0201 13.7172 12.7799 13.7172 13.2485 13.2486C13.7172 12.7799 13.7172 12.0201 13.2485 11.5515L11.6971 10L13.2485 8.44855C13.7172 7.97992 13.7172 7.22013 13.2485 6.7515C12.7799 6.28287 12.0201 6.28287 11.5515 6.7515L10 8.30297L8.44853 6.7515Z" fill="#111827" fill-opacity="0.87"/>
</svg>
